<svg id="Layer_1" data-name="Layer 1" xmlns="http://www.w3.org/2000/svg" viewBox="0 0 1701.2 117.9">
  <defs>
    <style>
      .cls-1 {
        fill: #ed1c24;
        stroke: #c1272d;
        stroke-miterlimit: 10;
      }
    </style>
  </defs>
  <title>strangerthingsheading</title>
  <g>
    <path class="cls-1" d="M132.8,126.6a31,31,0,0,1-9.9,23c-5.4,5.2-12.6,9.2-21.5,12a67.2,67.2,0,0,1-21,3.6,134.9,134.9,0,0,1-18-1.4l-20.5-2.6-2.4.2a5.8,5.8,0,0,0-2.2,1l-2.4,1.7-4.3-45.5,3.9-.5a37.9,37.9,0,0,0,2.8,9,38.3,38.3,0,0,0,7.1,11.7,39.8,39.8,0,0,0,13.8,9.4,40.5,40.5,0,0,0,15.6,3.3,27.1,27.1,0,0,0,14.3-3.6,14.8,14.8,0,0,0,7.2-10.2,10.4,10.4,0,0,0,.3-2.8,11.3,11.3,0,0,0-2.4-7.1,13.4,13.4,0,0,0-6.3-4.3l-29.1-9.6c-6.9-2.2-12.3-5.6-16.2-10.1A26,26,0,0,1,35.2,86c0-9.6,3.7-17.7,11.2-24.4s15.4-10,26.3-12.2a44.1,44.1,0,0,1,8.3-.8,61.5,61.5,0,0,1,12.8,1.5l14.5,2.8h1.2a25.5,25.5,0,0,0,5.1-2,20.6,20.6,0,0,1,3.1-1.7l3.7,35.7-4,1.2a17.1,17.1,0,0,0-2.2-5c-2.9-5.5-6.1-9.5-9.5-11.8a35.6,35.6,0,0,0-9.6-4.6,32.4,32.4,0,0,0-10.3-1.8,18.9,18.9,0,0,0-7.5,1.4,9.2,9.2,0,0,0-4.7,4.2,17.1,17.1,0,0,0-1.5,3.1,14.3,14.3,0,0,0-.7,4.6A9.1,9.1,0,0,0,74,82.6c2.2,2.3,5.6,4.3,10.2,5.7l26.4,8.5c7,2.3,12.4,5.9,16.3,11S132.8,119.1,132.8,126.6Z" transform="translate(-30 -47.8)"/>
    <path class="cls-1" d="M246.2,87.3l-3.3,1a33.2,33.2,0,0,0-6.5-12.1,34.2,34.2,0,0,0-11.2-9,30.6,30.6,0,0,0-13.9-3v77.1a35.4,35.4,0,0,0,.6,6.9,12.2,12.2,0,0,0,2.6,5.5,9.9,9.9,0,0,0,4.2,3.3,18.9,18.9,0,0,0,5.8.8v4.3H164.4v-4.2h1.5a11.9,11.9,0,0,0,8.2-3.6,9,9,0,0,0,2.7-4.5,41.6,41.6,0,0,0,.4-7V64.2a29.7,29.7,0,0,0-11.3,1.9,38.6,38.6,0,0,0-10.2,6.2,26.2,26.2,0,0,0-5.5,6.7,35.6,35.6,0,0,0-4.3,9l-3.3-.7,7.9-38.1a14.6,14.6,0,0,0,3.7,2.3,7,7,0,0,0,2.4.4h74a18.6,18.6,0,0,0,3.6-.8,16.9,16.9,0,0,0,4.6-2Z" transform="translate(-30 -47.8)"/>
    <path class="cls-1" d="M377.1,162.1H321.7v-4a13.7,13.7,0,0,0,5.4-1.7c.9-.5,1.3-1.5,1.3-3s-.8-4.8-2.4-8.4-4.2-8.1-9.1-17c-1.5-2.6-3.4-5.4-5.6-8.5l-6.6-9.1-5.9,2.8v31a29.4,29.4,0,0,0,.5,5.7,11.7,11.7,0,0,0,1.8,3.9,11,11,0,0,0,3.4,3,27.9,27.9,0,0,0,3.9,1v4.3H256v-4.3a8.5,8.5,0,0,0,3-.5,12.6,12.6,0,0,0,2.8-1.8,8,8,0,0,0,2.8-4.1,19.7,19.7,0,0,0,.7-6l.2-71.9c0-2.3,0-4.1-.1-5.3-.3-3.9-.9-6.6-1.7-8a7.3,7.3,0,0,0-2.9-3.1,9.5,9.5,0,0,0-4-.8V52h77c8.6,0,15.1,1.4,19.6,4a15,15,0,0,1,7.8,11.4c.1,1.3.2,2.3.2,2.9,0,5.4-2.1,10.5-6.3,15.2a49.6,49.6,0,0,1-11.7,9.4c-3.7,2.1-5.8,3.2-6.4,3.2,3.9,4.9,7.3,9.4,10.2,13.6s5.9,9,9,14.3c1.7,2.8,4.5,9.1,8.5,19,2.9,7.1,5.3,11.1,7.2,11.9a27.2,27.2,0,0,0,5.2,1.5ZM326,75.7a10.5,10.5,0,0,0-4.7-9,18,18,0,0,0-10.4-2.9,21.5,21.5,0,0,0-8,1.5,5,5,0,0,0-2.9,3,11.3,11.3,0,0,0-.8,4.7v27.6l3.8-1.2a44.2,44.2,0,0,0,14.7-8.3C323.2,86.3,326,81.2,326,75.7Z" transform="translate(-30 -47.8)"/>
    <path class="cls-1" d="M512.7,162.1h-57v-4.3a18.6,18.6,0,0,0,4.3-1.3c2.9-1.8,4.4-4.6,4.4-8.6a21.1,21.1,0,0,0-.2-3c-.5-3.5-2.7-7.3-6.5-11.6A40.9,40.9,0,0,0,443.9,123a47.6,47.6,0,0,0-8.7-2.3,56.4,56.4,0,0,0-9.5-1.1L417.9,142a24.1,24.1,0,0,0-1.4,8.7,5.8,5.8,0,0,0,.5,3.1,9.5,9.5,0,0,0,3,3,10.7,10.7,0,0,0,3.7,1.2v4.1H387.2v-4.2a10.4,10.4,0,0,0,3.3-1.4,25.7,25.7,0,0,0,3.3-2.5,21.8,21.8,0,0,0,4.3-4.4,21.5,21.5,0,0,0,2.8-5.7l30.4-78.1c.4-.9.7-1.8,1-2.7a6.7,6.7,0,0,0,.4-2.4,4.4,4.4,0,0,0-.7-2.6,3.3,3.3,0,0,0-1.4-1.3,9.4,9.4,0,0,0-1.5-.6V52h48.7v4.9a3.7,3.7,0,0,0-3.6,1.8,4.1,4.1,0,0,0-.5,1.8,8.8,8.8,0,0,0,.4,2c0,.1.3.9.7,2.2l28.6,85.7,1.2,2.1a12.2,12.2,0,0,0,2.8,3.3,14.7,14.7,0,0,0,2.4,1.3l2.9.7Zm-58.6-48.5L441.8,74.7l-10.5,30.9h3.2a33.8,33.8,0,0,1,5.9,1.2,58.4,58.4,0,0,1,8.3,3.4A53.7,53.7,0,0,1,454.1,113.6Z" transform="translate(-30 -47.8)"/>
    <path class="cls-1" d="M630.1,56.3l-2.7.5a6.7,6.7,0,0,0-3.6,2.6,13.3,13.3,0,0,0-2.5,6.2,57.4,57.4,0,0,0-.5,6.8v73.1a35.1,35.1,0,0,0,.4,4.1,11.6,11.6,0,0,0,1.3,4.1,7.4,7.4,0,0,0,3,2.8,10.3,10.3,0,0,0,4.2,1.3v4.3H596.5v-4.3a9.2,9.2,0,0,0,2.9-.4q5.4-1.8,5.4-9a19.6,19.6,0,0,0-2.3-9.2,54.7,54.7,0,0,0-5.9-8.1L546.1,71.8v73.6a21.7,21.7,0,0,0,.4,4.7,9.8,9.8,0,0,0,1.3,3.6,6,6,0,0,0,2.5,2.7,11.5,11.5,0,0,0,4.2,1.4v4.3h-32v-4.3l2.9-.4a8.1,8.1,0,0,0,2.1-.9c1.5-1,2.6-2.9,3.3-5.9a44,44,0,0,0,1-10V70.5a46.8,46.8,0,0,0-.5-6.7,8.9,8.9,0,0,0-1.5-4.4,10.2,10.2,0,0,0-6.4-3.1V52h62.9v4.3a3.1,3.1,0,0,0-1.9.6,6.6,6.6,0,0,0-1.6,1.7,3.7,3.7,0,0,0-.8,2.1,8.1,8.1,0,0,0,1,3.4,10.8,10.8,0,0,0,1.6,2.3l22.1,27.7V68a23.1,23.1,0,0,0-.4-4.5,8.3,8.3,0,0,0-1.7-3.4,7,7,0,0,0-3.1-2.6,13.4,13.4,0,0,0-4.5-1.2V52h33.2Z" transform="translate(-30 -47.8)"/>
    <path class="cls-1" d="M766.6,99.5a10.1,10.1,0,0,0-7.8,3.8,8,8,0,0,0-2.2,4,22.8,22.8,0,0,0-.5,5.6v36.9a10.1,10.1,0,0,0,1.3,3.8,5.8,5.8,0,0,0,2.5,2.8,12,12,0,0,0,4,1.5v4.2h-55c-13.2,0-23.7-1.3-31.5-4a52.4,52.4,0,0,1-24.8-17.8,62.4,62.4,0,0,1-9.9-18.3,63.1,63.1,0,0,1-3.4-20.6,54.7,54.7,0,0,1,4.2-21.3,47.7,47.7,0,0,1,12.7-17.4,52.4,52.4,0,0,1,19.2-10.3,85.1,85.1,0,0,1,23.8-3.2,109.7,109.7,0,0,1,13.2.7q6.1.8,14.1,2.4a41.7,41.7,0,0,0,7.5.8,12.7,12.7,0,0,0,6.2-1.3l3.9-3.1,4.5,37.9L745.8,88c-1.2-3.5-3.9-7.7-8-12.6a27,27,0,0,0-9.4-7.8q-11.9-5.4-21-5.4-14.4,0-22.8,12.3c-4.6,6.8-7.4,15.6-8.5,26.4,0,.6-.1,1.2-.1,1.8a14.1,14.1,0,0,0-.1,2.2,55.9,55.9,0,0,0,8.5,30.3c6.6,10.7,15.2,16,25.9,16,4.8,0,8.3-1.5,10.6-4.5s2.8-6,2.8-10.3V110.2a16.2,16.2,0,0,0-.5-5.2,7.1,7.1,0,0,0-1.8-2.7,8.1,8.1,0,0,0-5.7-2.4H714V95.8h52.6Z" transform="translate(-30 -47.8)"/>
    <path class="cls-1" d="M882.8,122.1l-14.3,42.1-3.7-1.1a22.4,22.4,0,0,0-4.2-.8l-4.8-.2H775.6v-4.2a25.2,25.2,0,0,0,4.3-1,11.9,11.9,0,0,0,2.2-2,11,11,0,0,0,2.3-4.2,27.2,27.2,0,0,0,.5-5.5V65.9a24.4,24.4,0,0,0-.3-4.4,6.5,6.5,0,0,0-1.6-2.9,6.8,6.8,0,0,0-2.6-1.9,17.6,17.6,0,0,0-3.8-.4V52h74.6a54.7,54.7,0,0,0,9.3-.8l3-.4,2.9-1L874.5,87l-3.7,2.7A33.9,33.9,0,0,0,848,64.8a42.7,42.7,0,0,0-13.4-2.2c-4.9,0-8.6.9-10.9,2.6a9.8,9.8,0,0,0-3.3,4.3,18,18,0,0,0-.9,6V87.4h15.4a15.4,15.4,0,0,0,4.3-.6,11.1,11.1,0,0,0,3.8-2.1,10.4,10.4,0,0,0,3.8-8V75l3.3-1,7.3,41.9-4.1.7a24.4,24.4,0,0,0-2.2-5.6,23.8,23.8,0,0,0-5-6.6,22.3,22.3,0,0,0-6.3-3.9,15.5,15.5,0,0,0-5.9-1.5H819.8v35.8a27.7,27.7,0,0,0,.6,6.2,14,14,0,0,0,2.5,5.3,11.9,11.9,0,0,0,5.6,4.1,23.8,23.8,0,0,0,8.4,1.4,40.1,40.1,0,0,0,10.6-1.6,43.8,43.8,0,0,0,9.9-4.1,48.8,48.8,0,0,0,12.9-10.8c4.6-5.2,7.5-10.3,8.8-15.1Z" transform="translate(-30 -47.8)"/>
    <path class="cls-1" d="M1013,162.1H957.6v-4a13.7,13.7,0,0,0,5.4-1.7c.9-.5,1.3-1.5,1.3-3s-.8-4.8-2.4-8.4-4.2-8.1-9.2-17a85.1,85.1,0,0,0-5.5-8.5l-6.7-9.1-5.8,2.8v31a29.4,29.4,0,0,0,.5,5.7,8.8,8.8,0,0,0,1.8,3.9,10,10,0,0,0,3.4,3,24.2,24.2,0,0,0,3.9,1v4.3H891.8v-4.3a8.7,8.7,0,0,0,3.1-.5,12.6,12.6,0,0,0,2.8-1.8,8,8,0,0,0,2.8-4.1,19.7,19.7,0,0,0,.7-6l.2-71.9c0-2.3,0-4.1-.1-5.3-.3-3.9-.9-6.6-1.7-8a8,8,0,0,0-2.9-3.1,9.5,9.5,0,0,0-4-.8V52h77c8.6,0,15.1,1.4,19.6,4a15,15,0,0,1,7.8,11.4c.1,1.3.2,2.3.2,2.9,0,5.4-2.1,10.5-6.3,15.2a48.3,48.3,0,0,1-11.8,9.4c-3.6,2.1-5.7,3.2-6.3,3.2,3.9,4.9,7.2,9.4,10.1,13.6s6,9,9.1,14.3c1.7,2.8,4.5,9.1,8.5,19,2.9,7.1,5.3,11.1,7.2,11.9a25.2,25.2,0,0,0,5.2,1.5ZM961.9,75.7a10.4,10.4,0,0,0-4.8-9,17.4,17.4,0,0,0-10.3-2.9,21.5,21.5,0,0,0-8,1.5,5,5,0,0,0-2.9,3A11.3,11.3,0,0,0,935,73v27.6l3.9-1.2a44.2,44.2,0,0,0,14.7-8.3C959.1,86.3,961.9,81.2,961.9,75.7Z" transform="translate(-30 -47.8)"/>
    <path class="cls-1" d="M1173.6,87.3l-3.3,1a31.7,31.7,0,0,0-6.5-12.1,32.9,32.9,0,0,0-11.1-9,30.9,30.9,0,0,0-13.9-3v77.1a35.4,35.4,0,0,0,.6,6.9,12,12,0,0,0,2.5,5.5,10.6,10.6,0,0,0,4.2,3.3,19.5,19.5,0,0,0,5.9.8v4.3h-60.3v-4.2h1.6q4.2,0,8.1-3.6a9,9,0,0,0,2.7-4.5,39.5,39.5,0,0,0,.5-7V64.2a29.4,29.4,0,0,0-11.3,1.9,37.5,37.5,0,0,0-10.3,6.2,28.5,28.5,0,0,0-5.5,6.7,35.6,35.6,0,0,0-4.3,9l-3.3-.7,8-38.1a12.4,12.4,0,0,0,3.6,2.3,7.6,7.6,0,0,0,2.5.4H1158a19.2,19.2,0,0,0,3.7-.8,15.1,15.1,0,0,0,4.5-2Z" transform="translate(-30 -47.8)"/>
    <path class="cls-1" d="M1302.5,56.3l-3,.6a7.4,7.4,0,0,0-4,2.8,12.4,12.4,0,0,0-2,4.9,36.1,36.1,0,0,0-.5,6.2l.2,74.7a27.4,27.4,0,0,0,.6,5.9,8.8,8.8,0,0,0,1.8,4,9.2,9.2,0,0,0,6.6,2.4v4.3h-53.3v-4.3a9.1,9.1,0,0,0,7.4-3.3,8.5,8.5,0,0,0,1.8-3.7,20.9,20.9,0,0,0,.5-4.6V92.8h-32.7v53.1a29.1,29.1,0,0,0,.4,4.9,8.7,8.7,0,0,0,2,3.6,9.1,9.1,0,0,0,7.4,3.4v4.3h-52.5v-4.2l3-.8a23.8,23.8,0,0,0,2.9-2.2c.7-.6,1.5-2.3,2.2-5a29.7,29.7,0,0,0,1.1-7.6l-.2-71.9V68.9a33.9,33.9,0,0,0-.3-5.4,9.8,9.8,0,0,0-1.7-3.6,7,7,0,0,0-3-2.5,13.5,13.5,0,0,0-4.1-1.1V52h53v4.3a13.4,13.4,0,0,0-3.5.6,6,6,0,0,0-3.2,2.2c-2.3,3-3.5,7-3.5,12.1V81.6h32.9V71.5a36.9,36.9,0,0,0-.6-8.2,13,13,0,0,0-2-4.3,6.8,6.8,0,0,0-3.8-2.1l-2.9-.6V52h53Z" transform="translate(-30 -47.8)"/>
    <path class="cls-1" d="M1365,56.3a16.9,16.9,0,0,0-4.6,1.4,7.9,7.9,0,0,0-2.3,2.2,10.2,10.2,0,0,0-1.9,4.7,40.6,40.6,0,0,0-.4,6.7v73.9a25.8,25.8,0,0,0,.6,5.8,7.9,7.9,0,0,0,1.8,3.9,12.7,12.7,0,0,0,2.9,2.1,8.7,8.7,0,0,0,3.7.8v4.3h-53.3v-4.3a9,9,0,0,0,7.3-3.6,9.2,9.2,0,0,0,2-3.6,22.1,22.1,0,0,0,.5-4.8V71.6a47.2,47.2,0,0,0-.5-7.5,10.8,10.8,0,0,0-2.1-4.9,5.2,5.2,0,0,0-2.5-1.8,25.3,25.3,0,0,0-4.7-1.1V52H1365Z" transform="translate(-30 -47.8)"/>
    <path class="cls-1" d="M1481.9,56.3l-2.7.5a6.7,6.7,0,0,0-3.6,2.6,13.3,13.3,0,0,0-2.5,6.2,57.4,57.4,0,0,0-.5,6.8v73.1a35.1,35.1,0,0,0,.4,4.1,11.6,11.6,0,0,0,1.3,4.1,7.4,7.4,0,0,0,3,2.8,10.3,10.3,0,0,0,4.3,1.3v4.3h-33.3v-4.3a9.2,9.2,0,0,0,2.9-.4q5.4-1.8,5.4-9a19.6,19.6,0,0,0-2.3-9.2,54.7,54.7,0,0,0-5.9-8.1l-50.5-59.3v73.6a21.7,21.7,0,0,0,.4,4.7,9.8,9.8,0,0,0,1.3,3.6,6,6,0,0,0,2.5,2.7,11.5,11.5,0,0,0,4.2,1.4v4.3h-32v-4.3l2.9-.4a8.1,8.1,0,0,0,2.1-.9c1.5-1,2.6-2.9,3.3-5.9a44,44,0,0,0,1-10V70.5a46.8,46.8,0,0,0-.5-6.7,8,8,0,0,0-1.5-4.4,10.2,10.2,0,0,0-6.4-3.1V52H1438v4.3a3.1,3.1,0,0,0-1.9.6,6.6,6.6,0,0,0-1.6,1.7,3.7,3.7,0,0,0-.8,2.1,8.1,8.1,0,0,0,1,3.4,10.8,10.8,0,0,0,1.6,2.3l22.1,27.7V68a23.1,23.1,0,0,0-.4-4.5,9.5,9.5,0,0,0-1.6-3.4,7.9,7.9,0,0,0-3.2-2.6,13.4,13.4,0,0,0-4.5-1.2V52h33.2Z" transform="translate(-30 -47.8)"/>
    <path class="cls-1" d="M1618.4,99.5a10.1,10.1,0,0,0-7.8,3.8,8,8,0,0,0-2.2,4,22.8,22.8,0,0,0-.5,5.6v36.9a10.1,10.1,0,0,0,1.3,3.8,5.8,5.8,0,0,0,2.5,2.8,12,12,0,0,0,4,1.5v4.2h-55c-13.2,0-23.7-1.3-31.5-4a52.4,52.4,0,0,1-24.8-17.8,62.4,62.4,0,0,1-9.9-18.3,63.1,63.1,0,0,1-3.4-20.6,54.7,54.7,0,0,1,4.2-21.3A47.7,47.7,0,0,1,1508,62.7a52.4,52.4,0,0,1,19.2-10.3,85.1,85.1,0,0,1,23.8-3.2,109.7,109.7,0,0,1,13.2.7q6.1.8,14.1,2.4a41.7,41.7,0,0,0,7.5.8,12.7,12.7,0,0,0,6.2-1.3l3.9-3.1,4.5,37.9-2.8,1.4c-1.2-3.5-3.9-7.7-8-12.6a27,27,0,0,0-9.4-7.8q-11.9-5.4-21-5.4-14.4,0-22.8,12.3c-4.6,6.8-7.4,15.6-8.5,26.4,0,.6-.1,1.2-.1,1.8a14.1,14.1,0,0,0-.1,2.2,55.9,55.9,0,0,0,8.5,30.3c6.6,10.7,15.2,16,25.9,16,4.8,0,8.3-1.5,10.6-4.5s2.8-6,2.8-10.3V110.2a21,21,0,0,0-.4-5.2,8.9,8.9,0,0,0-1.9-2.7,8,8,0,0,0-5.7-2.4h-1.7V95.8h52.6Z" transform="translate(-30 -47.8)"/>
    <path class="cls-1" d="M1730.8,126.6a31,31,0,0,1-9.9,23q-8.1,7.8-21.6,12a67.2,67.2,0,0,1-21,3.6,137.4,137.4,0,0,1-18-1.4l-20.4-2.6-2.4.2a5.2,5.2,0,0,0-2.2,1l-2.5,1.7-4.3-45.5,4-.5a32.8,32.8,0,0,0,2.7,9,40.4,40.4,0,0,0,7.2,11.7,39.8,39.8,0,0,0,13.8,9.4,40.4,40.4,0,0,0,15.5,3.3,26.9,26.9,0,0,0,14.3-3.6,14.9,14.9,0,0,0,7.3-10.2,19.1,19.1,0,0,0,.2-2.8,11.3,11.3,0,0,0-2.4-7.1,12.5,12.5,0,0,0-6.3-4.3l-29-9.6c-7-2.2-12.4-5.6-16.3-10.1a26.4,26.4,0,0,1-6.3-17.8c0-9.6,3.7-17.7,11.2-24.4s15.4-10,26.2-12.2a46,46,0,0,1,8.4-.8,62.3,62.3,0,0,1,12.8,1.5l14.5,2.8h1.2a22.7,22.7,0,0,0,5-2l3.1-1.7,3.7,35.7-3.9,1.2a20.4,20.4,0,0,0-2.2-5c-2.9-5.5-6.1-9.5-9.6-11.8a34.9,34.9,0,0,0-9.5-4.6,33,33,0,0,0-10.4-1.8,18.8,18.8,0,0,0-7.4,1.4,9.1,9.1,0,0,0-4.8,4.2,25.6,25.6,0,0,0-1.4,3.1,14.4,14.4,0,0,0-.8,4.6,9.2,9.2,0,0,0,2.7,6.5c2.2,2.3,5.6,4.3,10.2,5.7l26.4,8.5c6.9,2.3,12.4,5.9,16.3,11S1730.8,119.1,1730.8,126.6Z" transform="translate(-30 -47.8)"/>
  </g>
</svg>
